<svg width="800" height="800" viewBox="0 0 64 64" xmlns="http://www.w3.org/2000/svg" xml:space="preserve" style="fill-rule:evenodd;clip-rule:evenodd;stroke-miterlimit:1.5"><path style="fill:none" d="M0 0h1280v800H0z" transform="translate(-960 -320)"/><path d="M1003.25 372.026c.25 0 .46.165.52.402a.532.532 0 0 1-.25.608 23.94 23.94 0 0 1-11.52 2.938c-13.246 0-24-10.754-24-24s10.754-24 24-24c4.251 0 8.24 1.107 11.71 3.05.21.123.31.371.24.605a.525.525 0 0 1-.52.394c-.06.003-.12.003-.18.003-10.625 0-19.25 8.962-19.25 20s8.625 20 19.25 20Z" style="fill:none;stroke:#000;stroke-width:4.8px" transform="matrix(.8328 0 0 .8328 -789.123 -261.147)"/></svg>